<svg width="196" height="54" viewBox="0 0 196 54" fill="none" xmlns="http://www.w3.org/2000/svg">
<path d="M31.1423 36.2011C31.2747 36.8535 31.4089 37.5059 31.5467 38.1827C31.8323 38.0157 32.0286 37.7739 32.2178 37.5284C33.0185 36.4934 33.4643 35.2987 33.749 34.0363C33.8444 33.6059 33.9102 33.1691 33.9895 32.7351C34.0255 32.7288 34.0588 32.7207 34.0678 32.6773C35.0901 31.193 35.8125 29.5705 36.2619 27.829C36.5439 26.7353 36.7213 25.6227 36.7339 24.4893C36.7708 24.4361 36.7681 24.3801 36.7447 24.3224C36.7825 24.0156 36.7789 23.7079 36.7474 23.4002C36.7681 23.3244 36.7708 23.2513 36.7294 23.1809C36.6961 21.6279 36.416 20.1129 35.9962 18.624C35.0136 15.14 33.3157 12.0106 31.2351 9.077C30.0516 7.40944 28.7609 5.8312 27.3323 4.36848C27.2558 4.28997 27.1891 4.21778 27.1927 4.09145C27.2279 2.72889 27.2585 1.36632 27.29 0.0127831C27.3828 -0.020607 27.4089 0.0398521 27.4449 0.0741425C30.4083 2.99148 33.0734 6.15425 35.2865 9.68519C37.2563 12.8308 38.819 16.1587 39.7251 19.7754C40.2449 21.8526 40.4358 23.9623 40.2863 26.091C40.0602 29.307 38.8785 32.1675 36.9321 34.7203C35.0361 37.2045 32.669 39.1419 29.9921 40.7201C29.3697 41.0874 28.7212 41.4032 28.0871 41.7452C27.1486 42.2514 26.1614 42.3615 25.1256 42.218C24.4906 42.1323 23.8619 42.0186 23.2449 41.8444C23.1522 41.8192 23.0603 41.7903 22.9414 41.7542C23.0234 41.6414 23.1288 41.6134 23.2188 41.5683C25.1274 40.5992 26.9622 39.5091 28.6816 38.2278C29.4778 37.6331 30.2452 37.0024 30.9685 36.3202C31.0189 36.2724 31.0595 36.2047 31.1423 36.2011Z" fill="#0684B7"/>
<path d="M31.9765 13.4137C30.4516 13.4155 28.9267 13.4219 27.4027 13.4137C27.1865 13.4137 27.0973 13.4543 27.1126 13.6917C27.1334 14.0246 27.1325 14.3612 27.1135 14.6942C27.1 14.9306 27.1541 15.0308 27.4153 15.0091C27.6549 14.9902 27.9026 15.0145 28.1422 15.0488C28.5961 15.1129 28.7781 15.3042 28.8753 15.7535C28.9672 16.1813 28.9744 16.6144 28.9753 17.0484C28.9771 19.7871 28.9771 22.5258 28.9771 25.2644C28.9771 25.3077 28.9735 25.3511 28.9195 25.4124C28.3223 24.0859 27.7251 22.7595 27.1271 21.433C27.1217 21.3347 27.1081 21.2345 27.1144 21.137C27.1676 20.3249 27.1424 19.511 27.1162 18.6998C27.0523 16.6135 26.8163 14.5444 26.4407 12.4915C26.3858 12.1937 26.2714 11.9041 26.3038 11.5937C27.3018 11.4709 28.298 11.3455 29.2951 11.23C29.5094 11.2057 29.6013 11.1434 29.586 10.9016C29.5608 10.5171 29.5833 10.1291 29.5851 9.74292C29.8328 9.95588 29.9931 10.2401 30.1804 10.5009C30.8091 11.3771 31.391 12.2849 31.9296 13.2197C31.9629 13.2784 32.026 13.3334 31.9765 13.4137ZM46.6138 26.9149C47.4362 26.7633 48.2576 26.6622 49.043 26.3843C50.9714 25.703 52.4639 24.5245 53.2367 22.5862C53.8276 21.1073 54.0266 19.5832 53.4024 18.051C52.8737 16.7534 51.9298 15.8104 50.767 15.0822C48.9647 13.9533 46.9984 13.4363 44.8692 13.587C44.4395 13.6177 44.0135 13.7007 43.5983 13.827C43.5118 13.8541 43.4145 13.9091 43.3587 13.7593C43.2956 13.5942 43.4343 13.596 43.5091 13.5644C44.7989 13.0095 46.1445 12.7983 47.546 12.9156C48.9971 13.0383 50.3562 13.4489 51.5884 14.234C53.1484 15.2284 54.2554 16.581 54.5418 18.4471C54.976 21.2913 54.0933 23.6573 51.7532 25.3926C50.531 26.3003 49.1268 26.7587 47.6109 26.8751C47.4407 26.8887 47.2695 26.9067 47.0993 26.913C46.9372 26.9194 46.7759 26.9149 46.6138 26.9149ZM48.2369 7.40671C48.2369 8.30095 48.2405 9.13112 48.2351 9.9613C48.2306 10.7103 48.2117 11.4592 48.2081 12.2082C48.2081 12.3661 48.1882 12.4338 48.0036 12.3959C47.7406 12.3426 47.4704 12.3047 47.202 12.2912C47.0011 12.2804 46.9921 12.2055 47.0362 12.0376C47.3848 10.7148 47.7262 9.391 48.0694 8.06634C48.1207 7.86782 48.1702 7.6684 48.2369 7.40671ZM56.7999 11.4448C55.7317 12.5556 54.6625 13.6646 53.5979 14.779C53.4898 14.8927 53.4204 14.8864 53.316 14.7817C53.1637 14.6283 53.0052 14.4794 52.8359 14.3459C52.672 14.2168 52.6657 14.1437 52.853 14.0183C53.9005 13.319 54.939 12.6052 55.9821 11.8978C56.2351 11.7263 56.4928 11.5639 56.7486 11.3979C56.7648 11.4132 56.7828 11.4294 56.7999 11.4448ZM59.1399 18.0194C58.7878 18.1403 58.4356 18.2648 58.0816 18.383C57.135 18.6998 56.1847 19.0075 55.2408 19.3341C55.0138 19.4126 54.9634 19.3567 54.9661 19.1338C54.9679 18.91 54.9417 18.6835 54.9102 18.4606C54.8877 18.3018 54.9192 18.2423 55.0958 18.2332C55.6983 18.2035 56.3 18.1502 56.9017 18.1114C57.6448 18.0636 58.3869 18.0212 59.1291 17.977C59.1327 17.9914 59.1363 18.0049 59.1399 18.0194ZM59.0724 24.1645C57.4952 23.8522 55.9172 23.5409 54.3167 23.2242C54.4527 22.9057 54.5869 22.6115 54.7067 22.3119C54.7778 22.1323 54.8823 22.2126 54.9859 22.2596C55.8235 22.6377 56.6603 23.0176 57.4979 23.3956C58.0294 23.6366 58.5608 23.8775 59.0922 24.1184C59.0859 24.1338 59.0796 24.1491 59.0724 24.1645ZM55.2345 29.2881C54.4563 28.605 53.6916 27.9345 52.9269 27.2641C52.5269 26.9121 52.1324 26.5557 51.7262 26.2137C51.5929 26.1018 51.6145 26.0477 51.7433 25.9638C51.9478 25.832 52.1487 25.694 52.3387 25.5424C52.4846 25.426 52.563 25.4404 52.6738 25.5956C53.2304 26.3843 53.7987 27.163 54.3626 27.9453C54.622 28.3027 54.8814 28.6609 55.1381 29.0201C55.1921 29.0968 55.2822 29.1644 55.2345 29.2881ZM47.1948 32.7658C47.0849 32.1621 47.0777 31.5395 47.0209 30.9213C46.9309 29.917 46.8714 28.9091 46.7813 27.9038C46.7597 27.6728 46.8174 27.6097 47.0353 27.6503C47.1578 27.6728 47.2866 27.6737 47.4127 27.6773C47.8658 27.6909 47.8586 27.6891 47.7973 28.1448C47.5938 29.6869 47.3947 31.2299 47.1948 32.7658ZM29.1969 9.21685C28.0251 9.2358 26.8532 9.25385 25.6814 9.27189C24.9852 6.76965 24.0511 4.36485 22.7568 2.10534C22.8766 2.02774 22.937 2.13151 23.0072 2.19107C24.1376 3.16562 25.1824 4.22679 26.1777 5.3376C27.2144 6.49533 28.1818 7.709 29.0825 8.97592C29.1302 9.04179 29.1726 9.11127 29.2167 9.17895C29.2005 9.18617 29.1933 9.1997 29.1969 9.21685ZM34.1084 28.9343C34.0328 28.1357 33.9814 27.3354 33.8589 26.5422C33.8544 26.5106 33.8508 26.479 33.8409 26.4059C32.0071 28.771 29.6535 30.4711 27.2027 32.1188C27.9791 32.3344 28.7123 32.5375 29.4788 32.7504C29.032 33.1827 28.5655 33.5463 28.0971 33.9072C27.1253 34.6571 26.1138 35.3474 25.0311 35.9285C24.8807 36.0088 24.7213 36.072 24.5655 36.1433H24.3286C24.2916 36.0134 24.3574 35.9168 24.3916 35.8184C25.2779 33.2476 25.9796 30.6281 26.4398 27.9462C26.601 27.0042 26.728 26.0558 26.8713 25.1101C27.4243 26.3139 27.9782 27.5185 28.5331 28.7214C28.6601 28.9993 28.7285 29.3648 28.9447 29.5254C29.1744 29.6959 29.5536 29.5479 29.8643 29.5813C30.112 29.6066 30.1759 29.5245 30.175 29.2745C30.1669 25.2698 30.1687 21.2661 30.1687 17.2623C30.1687 16.8824 30.1777 16.5034 30.2165 16.1244C30.302 15.2942 30.6047 15.0118 31.4324 15.0028C31.5946 15.001 31.7567 15.0037 31.9197 15.0019C31.981 15.001 32.0485 15.0145 32.0872 14.945C32.153 14.4948 32.0746 14.04 32.1278 13.5888C33.4698 15.9701 34.475 18.4778 34.9434 21.1849C35.1839 22.57 35.2586 23.9623 35.101 25.3628C34.9659 26.5611 34.6795 27.7198 34.1814 28.8224C34.1643 28.863 34.1336 28.8973 34.1084 28.9343Z" fill="#F3AE30"/>
<path d="M32.0876 14.9449C32.0489 15.0144 31.9813 15.0008 31.9192 15.0017C31.758 15.0035 31.5949 15.0008 31.4319 15.0026C30.6051 15.0126 30.3024 15.295 30.2169 16.1252C30.1781 16.5033 30.1691 16.8823 30.1691 17.2622C30.1691 21.2659 30.1673 25.2706 30.1763 29.2744C30.1763 29.5243 30.1133 29.6065 29.8647 29.5812C29.5539 29.5487 29.1747 29.6967 28.9451 29.5261C28.7289 29.3646 28.6604 29.0001 28.5334 28.7221C27.9786 27.5184 27.4247 26.3146 26.8716 25.11C26.8491 25.0333 26.8347 24.953 26.8014 24.8808C25.5242 22.0744 24.2461 19.269 22.9662 16.4645C22.9401 16.4067 22.9356 16.3246 22.8509 16.3102C22.7978 16.3607 22.8194 16.4175 22.8194 16.4681C22.8185 19.6408 22.8167 22.8135 22.8221 25.9871C22.823 26.4103 22.8365 26.8362 22.913 27.2558C22.9968 27.7061 23.186 27.8893 23.6381 27.975C23.8615 28.0183 24.0867 28.0228 24.3118 28.0156C24.446 28.0111 24.5064 28.0436 24.5037 28.1934C24.4947 28.5913 24.4956 28.9892 24.5028 29.3863C24.5055 29.5243 24.4668 29.574 24.3208 29.5731C22.859 29.5686 21.3972 29.5686 19.9353 29.5722C19.8101 29.5722 19.7597 29.5406 19.7624 29.407C19.7696 29.0001 19.7687 28.5931 19.7624 28.1861C19.7606 28.058 19.8011 28.0102 19.9326 28.0156C20.1488 28.0237 20.3658 28.0246 20.582 28.0129C21.163 27.9822 21.4503 27.7304 21.5737 27.1701C21.6476 26.8335 21.6683 26.4924 21.6683 26.1486C21.6674 23.1474 21.6683 20.1461 21.6683 17.1449C21.6683 16.6928 21.653 16.2407 21.5575 15.7976C21.4665 15.378 21.2098 15.1218 20.7802 15.0324C20.5019 14.9747 20.2235 14.9936 19.9452 14.9954C19.8011 14.9972 19.7588 14.9521 19.7624 14.8104C19.7705 14.4314 19.7732 14.0516 19.7606 13.6717C19.7552 13.4975 19.8029 13.4425 19.9839 13.4434C21.0666 13.4524 22.1492 13.4515 23.2319 13.4443C23.3994 13.4434 23.4859 13.4921 23.557 13.6491C24.6955 16.1721 25.8412 18.6915 26.9869 21.2109C27.0239 21.2912 27.0356 21.3887 27.1274 21.4338C27.7255 22.7602 28.3227 24.0858 28.9198 25.4123C28.9739 25.3509 28.9775 25.3076 28.9775 25.2652C28.9775 22.5256 28.9775 19.787 28.9757 17.0492C28.9748 16.6152 28.9676 16.1811 28.8757 15.7534C28.7784 15.304 28.5965 15.1136 28.1425 15.0487C27.903 15.0144 27.6553 14.99 27.4157 15.009C27.1536 15.0306 27.1004 14.9305 27.1139 14.694C27.1328 14.3611 27.1337 14.0245 27.113 13.6915C27.0977 13.4542 27.1869 13.4136 27.4031 13.4145C28.9271 13.4217 30.4519 13.4154 31.9768 13.4136L32.0642 13.4731C32.0714 13.9631 32.0795 14.4549 32.0876 14.9449ZM54.0081 48.9089C53.4929 49.3276 52.8957 49.6028 52.294 49.8617C50.8944 50.4645 49.4244 50.7984 47.913 50.9671C45.7657 51.2054 43.6338 51.079 41.5063 50.719C38.7474 50.2507 35.9832 49.8085 33.2495 49.2084C31.9678 48.9269 30.7068 48.5587 29.4324 48.2474C27.4283 47.7574 25.4044 47.3812 23.3616 47.1023C21.4377 46.8397 19.5075 46.6863 17.5665 46.7143C15.9677 46.7369 14.3843 46.8957 12.8396 47.3378C12.7612 47.3604 12.6819 47.3776 12.6018 47.3893C12.4802 47.4082 12.3586 47.4191 12.2316 47.4064C15.5822 45.7966 19.0841 44.9529 22.8608 45.2534C21.6755 44.3104 20.4901 43.3684 19.2706 42.3992C19.5363 42.3785 19.7408 42.4768 19.9488 42.5265C21.544 42.9145 23.1607 43.159 24.7928 43.316C26.5843 43.4911 28.3785 43.5245 30.1709 43.4045C32.8649 43.224 35.5085 42.7674 38.0566 41.8244C39.3041 41.3624 40.5624 40.9266 41.8107 40.4655C42.6232 40.1659 43.4734 39.9845 44.3534 40.0522C44.6083 40.0729 44.8497 40.1361 45.0524 40.3039C45.364 40.562 45.3766 40.9311 45.0758 41.1946C43.5473 42.531 42.0152 43.8656 40.4903 45.2065C40.3606 45.3211 40.2922 45.3102 40.1661 45.2065C39.4239 44.5956 38.5808 44.2545 37.6053 44.2906C37.0541 44.3113 36.5533 44.5135 36.0489 44.7075C34.4952 45.3066 32.9262 45.858 31.2824 46.1666C30.715 46.274 30.143 46.3254 29.5305 46.2947C29.6764 46.4617 29.8674 46.4617 30.0178 46.542C30.7113 46.9074 31.3716 46.8767 32.1174 46.5907C33.5342 46.0493 34.9915 45.6044 36.4813 45.2904C37.173 45.1451 37.8711 45.0612 38.5664 45.2714C38.9924 45.4005 39.3086 45.6423 39.35 46.1296C39.3869 46.5645 39.123 47.0301 38.7204 47.2467C38.4484 47.3929 38.1539 47.42 37.8548 47.4245C36.7362 47.4398 35.6175 47.4524 34.4988 47.4669C34.3844 47.4678 34.27 47.4669 34.1538 47.4669C34.1565 47.5932 34.2367 47.5851 34.289 47.6022C37.2433 48.584 40.2588 49.2906 43.35 49.6741C45.3163 49.9186 47.2861 50.0188 49.2605 49.8654C50.7989 49.7462 52.3148 49.4828 53.7676 48.9341C53.8352 48.9089 53.9063 48.8935 53.9748 48.8746C53.9856 48.8854 53.9964 48.8971 54.0081 48.9089ZM51.7806 51.2351C51.3474 51.7486 50.7755 52.0734 50.1927 52.3739C48.9272 53.0218 47.5672 53.3449 46.1629 53.5163C43.3573 53.861 40.6119 53.4604 37.8828 52.8522C34.9951 52.2097 32.1083 51.5582 29.2216 50.9094C27.0284 50.4176 24.8433 49.8879 22.641 49.4376C20.0209 48.9016 17.3719 48.6318 14.6905 48.7473C13.0557 48.8177 11.4462 49.037 9.86182 49.4412C9.8375 49.4485 9.81048 49.4422 9.77175 49.4422C9.78707 49.3664 9.85372 49.3591 9.89785 49.3303C9.95099 49.2969 10.0104 49.2743 10.0663 49.2472C11.6794 48.4721 13.3872 48.02 15.1499 47.7656C18.4897 47.2846 21.7755 47.6248 25.0333 48.4324C29.6233 49.5703 34.2088 50.7208 38.8267 51.7423C40.8929 52.1989 42.9772 52.4777 45.0956 52.4172C47.324 52.3559 49.5046 52.0166 51.6104 51.2568C51.6591 51.2388 51.714 51.2324 51.7653 51.2207L51.7806 51.2351ZM32.2885 -3.8147e-06C33.5837 1.06929 34.7492 2.18732 35.8571 3.3649C38.1944 5.85 40.176 8.59408 41.7423 11.6314C43.1762 14.4107 44.2336 17.3226 44.7993 20.4078C45.1307 22.2197 45.2686 24.0479 45.1479 25.8815C44.8921 29.7833 43.4644 33.1978 40.7893 36.071C38.3926 38.6454 35.4797 40.4267 32.22 41.6764C31.7508 41.8569 31.268 42.0049 30.7915 42.1655C30.7681 42.1736 30.7402 42.1673 30.6609 42.1673C31.0608 41.893 31.4247 41.6485 31.7841 41.3976C33.8809 39.9376 35.8147 38.2926 37.491 36.3552C39.7589 33.7348 41.3532 30.7741 42.0035 27.3433C42.3602 25.4565 42.3953 23.5552 42.1566 21.6521C41.7054 18.0616 40.4056 14.7671 38.6484 11.635C37.0019 8.70056 34.9834 6.03408 32.7505 3.52732C32.4182 3.15375 32.2462 2.78648 32.2777 2.27485C32.3218 1.53852 32.2885 0.797684 32.2885 -3.8147e-06ZM17.017 7.88302C16.9855 6.93825 16.9621 6.01333 16.9179 5.08931C16.9062 4.83846 16.7423 4.69227 16.4811 4.65257C16.3235 4.6291 16.273 4.66339 16.2793 4.82943C16.3109 5.69299 16.3316 6.55745 16.3577 7.42191C16.3604 7.49861 16.328 7.59065 16.428 7.63487C16.6126 7.71789 16.7828 7.8388 17.017 7.88302ZM2.28779 35.2814C2.26708 35.1388 2.25987 35.0684 2.24636 34.999C2.09684 34.2265 2.03109 33.4487 2.05271 32.66C2.05991 32.3957 2.28239 32.078 2.07793 31.8867C1.89418 31.7135 1.56813 31.6909 1.30332 31.6061C0.892598 31.4734 0.890798 31.4743 0.8935 31.9021C0.894401 32.0004 0.900707 32.1006 0.910615 32.1989C1.00339 33.1636 1.36907 34.0253 1.90049 34.823C1.99776 34.9683 2.07613 35.1325 2.28779 35.2814ZM32.1228 34.4341C32.5065 34.1029 32.7686 33.7745 32.9991 33.4252C33.5387 32.6086 33.8467 31.7216 33.7683 30.7263C33.7602 30.6279 33.8044 30.4781 33.6143 30.5269C33.1108 30.6568 32.6073 30.7922 32.1047 30.9239C32.021 30.9456 31.9723 30.9753 32.0318 31.0719C32.2516 31.4337 32.2624 31.8452 32.2777 32.2486C32.3038 32.9524 32.2272 33.6517 32.1228 34.4341ZM27.7408 10.0424L27.7444 9.99093C27.6399 9.98191 27.5337 9.96296 27.4292 9.96567C25.1756 10.0333 22.922 10.1046 20.6676 10.1678C20.4928 10.1723 20.455 10.2391 20.4631 10.3952C20.4802 10.693 20.4937 10.9916 20.4865 11.2894C20.4811 11.4744 20.5415 11.5015 20.7081 11.4663C21.3314 11.3318 21.9574 11.21 22.5825 11.0837C24.3019 10.7363 26.0214 10.3898 27.7408 10.0424ZM18.4284 35.174C17.9682 31.9264 17.5133 28.7221 17.0576 25.517C17.0224 25.5206 16.9873 25.5242 16.9522 25.5278C17.0089 28.6716 17.0648 31.8163 17.1215 34.9935C17.5854 34.8131 17.9808 35.0188 18.4284 35.174ZM16.2911 2.47697C16.301 2.50766 16.3442 2.53112 16.3118 2.57082C16.1875 2.58526 16.0614 2.59338 15.938 2.61413C14.7391 2.81446 14.0177 4.01189 14.441 5.10104C14.6193 5.56124 14.9445 5.88068 15.4075 6.12432C15.4075 5.78052 15.4111 5.49266 15.4066 5.20571C15.4021 4.90613 15.5065 4.65617 15.7407 4.47119C16.0713 4.20951 16.4415 4.15266 16.8324 4.31328C17.2206 4.4739 17.4178 4.7807 17.4377 5.19489C17.4512 5.4683 17.4404 5.74171 17.4404 6.03769C18.5554 5.4665 18.7401 4.00377 17.8529 3.15104C17.7385 3.04185 17.5836 2.97869 17.498 2.83882C17.5701 2.76573 17.6223 2.83702 17.6763 2.86679C18.0132 3.04817 18.2969 3.29361 18.5509 3.57876C18.5969 3.6311 18.6221 3.73306 18.741 3.69155C18.7293 3.31978 18.5347 3.04636 18.2726 2.81536C17.861 2.45081 17.3692 2.23605 16.8504 2.07452C16.5586 1.98429 16.319 2.11061 16.2199 2.40298C16.1947 2.47697 16.2514 2.46795 16.2911 2.47697ZM0.00450449 30.9429C0.00270308 30.3446 0.00180141 29.7454 0 29.1472C0.0324254 28.696 0.0630485 28.2457 0.0954739 27.7954C0.107183 27.7007 0.117993 27.6068 0.129702 27.513C2.08333 29.5072 4.42787 30.9618 6.71116 32.4967C6.79042 32.55 6.8904 32.5788 6.95254 32.697C6.2536 32.9353 5.56276 33.1708 4.84039 33.4162C5.01603 33.6256 5.22229 33.7483 5.41054 33.8909C6.87869 35.0017 8.40268 36.0249 10.1167 36.7252C10.867 37.032 11.6371 37.281 12.4622 37.2837C12.5351 37.2837 12.6072 37.2846 12.6792 37.2846C13.8159 37.3316 14.4725 36.7459 14.6734 35.4998C14.7968 34.7301 14.759 33.9504 14.7851 33.1762C14.8733 30.6234 14.9418 28.0688 15.0166 25.5152C15.0184 25.461 15.013 25.4078 15.0112 25.3536C15.0391 25.2643 15.0517 25.1741 15.0265 25.082C15.0823 24.5605 15.0562 24.0353 15.0733 23.5128C15.1111 23.4235 15.1066 23.3305 15.0922 23.2376C15.1219 22.9308 15.1201 22.6231 15.1057 22.3154C15.1364 21.9905 15.1697 21.6657 15.1508 21.3381C15.1616 20.9239 15.1706 20.5098 15.1805 20.0956C15.2219 20.0053 15.2129 19.9124 15.1994 19.8195C15.2111 19.3322 15.2228 18.8458 15.2354 18.3585C15.2706 18.3053 15.2643 18.2484 15.2453 18.1916C15.2805 17.1476 15.3174 16.1035 15.3516 15.0604C15.375 14.3575 15.3958 13.6554 15.4147 12.9525C15.4165 12.8911 15.4012 12.8289 15.394 12.7675C15.4012 12.7188 15.3777 12.7025 15.3318 12.7097C14.6419 12.661 13.951 12.6087 13.2602 12.5645C11.9668 12.4814 10.6725 12.4038 9.37904 12.3235C9.34482 12.2938 9.30699 12.2929 9.26736 12.3055C9.03317 12.2929 8.80079 12.2802 8.56751 12.2685C8.53418 12.2369 8.49545 12.2369 8.45492 12.2504C8.22164 12.2378 7.98836 12.2252 7.75507 12.2134C7.72175 12.1819 7.68302 12.1819 7.64249 12.1963C6.35988 12.1106 5.07728 12.0194 3.79377 11.9436C3.5812 11.931 3.50104 11.885 3.51005 11.6531C3.52986 11.1306 3.52446 10.6072 3.51185 10.0839C3.50825 9.89799 3.55959 9.83392 3.74874 9.83392C4.0901 9.83573 4.43237 9.85558 4.77194 9.80324C4.8467 9.82851 4.91875 9.81948 4.98901 9.7879C6.53011 9.74369 8.07122 9.70127 9.61233 9.65435C10.8832 9.61555 12.1541 9.57134 13.4241 9.52983C13.9825 9.51178 14.5419 9.47929 15.1003 9.48381C15.3579 9.48561 15.4372 9.39537 15.4039 9.15625C15.3895 9.0597 15.3931 8.95954 15.3885 8.86028C15.4111 8.77004 15.4129 8.6798 15.3895 8.58957C15.3949 8.55347 15.3985 8.51738 15.4057 8.48219C15.4624 8.19614 15.3516 8.07432 15.0625 7.97777C13.5673 7.48147 12.5702 6.49699 12.3424 4.8962C12.1505 3.54898 12.6918 2.46163 13.7358 1.62154C15.4444 0.248142 18.0934 0.482758 19.5372 2.12415C21.0423 3.83593 20.5919 6.39502 18.5761 7.58614C18.287 7.75669 17.9871 7.90287 17.6628 7.9886C17.5358 8.02288 17.4908 8.08064 17.4953 8.21419C17.507 8.55618 17.5061 8.90088 17.5061 9.24378C17.5061 9.35748 17.525 9.43688 17.6655 9.43418C18.6212 9.41071 19.5759 9.38996 20.5307 9.36831C20.6415 9.39087 20.7514 9.39537 20.8603 9.36018C21.7259 9.34575 22.5906 9.33131 23.4553 9.31777C23.5841 9.33943 23.712 9.34575 23.839 9.30514C24.4532 9.29341 25.0675 9.28258 25.6818 9.27175C26.8527 9.2537 28.0254 9.23566 29.1973 9.21671C29.2882 9.21581 29.3774 9.2149 29.4675 9.214C29.6161 9.24107 29.5639 9.36018 29.5711 9.44862C29.5792 9.54697 29.581 9.64443 29.5855 9.74279C29.5837 10.129 29.5611 10.517 29.5864 10.9023C29.6026 11.1442 29.5098 11.2055 29.2954 11.2299C28.2984 11.3454 27.3022 11.4708 26.3042 11.5935C26.0016 11.6314 25.698 11.6675 25.3954 11.7054C24.0299 11.8787 22.6635 12.0528 21.2972 12.2252C20.1992 12.3641 19.1004 12.5031 18.0015 12.6358C17.8358 12.6556 17.7988 12.7224 17.8132 12.8812C17.8826 13.6717 17.9393 14.4648 18.0051 15.2562C18.1222 16.6585 18.2447 18.0616 18.3609 19.4648C18.4789 20.886 18.5879 22.3082 18.7068 23.7294C18.8337 25.2499 18.9689 26.7694 19.0977 28.2899C19.2688 30.313 19.4282 32.337 19.612 34.3601C19.6786 35.0838 19.8606 35.784 20.2983 36.3877C20.5838 36.7811 20.9405 37.1015 21.453 37.0906C22.5744 37.0672 23.5976 36.6873 24.5658 36.1441C24.7217 36.0728 24.8811 36.0087 25.0315 35.9284C26.1132 35.3473 27.1256 34.657 28.0975 33.908C28.5659 33.5462 29.0324 33.1825 29.4792 32.7503C28.7127 32.5382 27.9786 32.3343 27.2031 32.1186C29.6539 30.4718 32.0075 28.7709 33.8413 26.4067C33.8512 26.4789 33.8548 26.5105 33.8593 26.542C33.9818 27.3352 34.0331 28.1365 34.1088 28.9342C34.1034 29.7346 34.1502 30.5341 34.098 31.3336C34.0683 31.782 34.0304 32.2305 33.9953 32.679C33.9935 32.697 33.9908 32.716 33.989 32.7349C33.9098 33.169 33.844 33.6057 33.7485 34.0361C33.4639 35.2985 33.0181 36.4933 32.2182 37.5283C32.0291 37.7737 31.8318 38.0156 31.5463 38.1825C31.4085 37.5057 31.2752 36.8533 31.1419 36.2009C31.1122 35.7578 30.9915 35.331 30.9122 34.897C30.8699 34.6642 30.7627 34.8329 30.7032 34.8979C30.0935 35.5656 29.4585 36.2072 28.7847 36.8091C27.1274 38.2908 25.3467 39.5848 23.2868 40.4555C22.8086 40.6586 22.288 40.682 21.7962 40.8309C20.1506 41.3317 18.6806 42.1069 17.6007 43.4974C17.5295 43.5876 17.4917 43.6373 17.3827 43.5236C16.3487 42.438 15.0589 41.7757 13.6646 41.292C13.0179 41.0682 12.3559 40.9076 11.6867 40.7669C10.7535 40.5701 9.89695 40.1632 9.062 39.7156C7.18943 38.714 5.51412 37.4362 3.95139 36.0042C3.85862 35.9194 3.77215 35.8246 3.67308 35.7479C3.60642 35.6965 3.56499 35.5702 3.46321 35.6135C3.38575 35.6469 3.41818 35.7597 3.40827 35.8364C3.27947 36.8741 3.15337 37.9127 3.02547 38.9549C2.89307 38.9648 2.83452 38.8575 2.76066 38.7898C1.81942 37.9253 1.23577 36.8371 0.817841 35.646C0.366588 34.3601 0.157624 33.0273 0.055844 31.6729C0.0378299 31.4301 0.0216179 31.1865 0.00450449 30.9429ZM11.6695 27.7954C11.2201 28.4352 10.7085 29.0127 10.0239 29.4124C8.38917 30.368 6.14461 30.1127 4.726 28.8025C3.67398 27.8306 3.0588 26.6007 2.66159 25.2471C2.37876 24.2816 2.24005 23.2917 2.21393 22.2847C2.21213 22.2044 2.19862 22.125 2.19051 22.0447C2.21213 22.0059 2.21303 21.968 2.18601 21.931C2.18781 20.9447 2.22294 19.9629 2.40488 18.9902C2.73094 17.2477 3.40467 15.6758 4.68006 14.4107C5.57987 13.5174 6.66882 13.0517 7.94512 13.0978C8.76206 13.1275 9.51145 13.4082 10.2104 13.8242C10.6058 14.0588 11.0048 14.2889 11.3903 14.5388C11.6119 14.6823 11.7416 14.6092 11.8398 14.4044C11.9821 14.1084 12.0388 13.7872 12.0677 13.465C12.0812 13.3143 12.1289 13.2674 12.2793 13.262C13.0107 13.2367 13.0107 13.2322 13.0098 13.9577C13.008 15.6126 13.0044 17.2676 13.0089 18.9225C13.0098 19.1192 12.981 19.2058 12.7522 19.2004C12.1649 19.186 12.1667 19.1977 12.0037 18.6356C11.683 17.5329 11.2381 16.4979 10.4158 15.6614C9.3196 14.5461 7.62987 14.3141 6.44365 15.129C5.66454 15.6641 5.2367 16.4527 4.92506 17.3145C4.51343 18.4542 4.3468 19.6381 4.32699 20.8463C4.28736 20.9727 4.29636 21.1017 4.31258 21.2307C4.28556 21.4293 4.28556 21.6278 4.31258 21.8263C4.29546 21.9562 4.28826 22.0844 4.32699 22.2116C4.37202 23.7862 4.6044 25.3202 5.3619 26.7279C5.80054 27.5428 6.41753 28.1762 7.36056 28.3783C8.96472 28.7212 10.5067 27.9046 11.1471 26.3859C11.5669 25.3924 11.6227 24.3547 11.4597 23.3044C11.3651 22.6962 11.0472 22.4201 10.4248 22.3461C10.1843 22.3172 9.93928 22.3136 9.69609 22.3145C9.55468 22.3154 9.48082 22.2937 9.48623 22.125C9.49704 21.737 9.49433 21.348 9.48623 20.96C9.48353 20.8157 9.53667 20.7741 9.67538 20.775C11.3714 20.7778 13.0674 20.7778 14.7635 20.7732C14.9085 20.7732 14.9535 20.8211 14.9445 20.9609C14.9364 21.0864 14.9508 21.2127 14.9544 21.3381C14.9472 21.6612 14.9391 21.9851 14.9319 22.3073C14.6428 22.3172 14.3572 22.3443 14.078 22.4219C13.6493 22.5419 13.3845 22.8153 13.2827 23.252C13.1782 23.7041 13.1665 24.1643 13.1656 24.6236C13.162 26.1847 13.1593 27.7458 13.1692 29.3069C13.1701 29.5198 13.1143 29.5803 12.8999 29.5758C12.3442 29.5631 12.3451 29.5731 12.1974 29.0407C12.083 28.6247 11.9641 28.2105 11.8461 27.7954C11.8326 27.7422 11.8389 27.6583 11.7722 27.6592C11.7164 27.661 11.6894 27.7368 11.6695 27.7954Z" fill="#202B77"/>
<path fill-rule="evenodd" clip-rule="evenodd" d="M15.7998 2.64265C16.6555 2.47391 17.3067 2.62731 17.7678 3.08029C17.776 3.03247 17.7859 2.98284 17.794 2.93501C17.4103 2.52083 16.7915 2.37645 16.0259 2.39991C15.9511 2.48112 15.8755 2.56234 15.7998 2.64265Z" fill="#202B77"/>
<path d="M73.7617 22.373H72.4429V24.9653C72.1586 25.1131 71.7228 25.2129 71.2428 25.2129C69.6953 25.2129 68.7895 24.0595 68.7895 22.2985C68.7895 20.5627 69.7066 19.3475 71.4398 19.3475C72.2142 19.3475 72.8572 19.5711 73.4245 19.8932V18.5036C72.8787 18.2825 72.1814 18.0956 71.3413 18.0956C68.9537 18.0956 67.3936 19.9185 67.3936 22.3983C67.3936 24.7417 68.7895 26.4648 71.1455 26.4648C72.1485 26.4648 73.1074 26.1805 73.7617 25.8079V22.373ZM75.4192 26.341H76.7279V21.7035C76.7279 21.2449 76.7279 20.7737 76.7065 20.4389H76.7279C76.968 20.823 77.2181 21.2335 77.5352 21.6921L80.7085 26.341H81.9074V18.1701H80.5872V22.5221C80.5872 22.9693 80.5872 23.4645 80.61 23.8978H80.5872C80.37 23.5264 80.1085 23.1171 79.7813 22.6333L76.7166 18.1701H75.4192V26.341ZM91.7647 22.373H90.4459V24.9653C90.1616 25.1131 89.7258 25.2129 89.2458 25.2129C87.697 25.2129 86.7925 24.0595 86.7925 22.2985C86.7925 20.5627 87.7084 19.3475 89.4428 19.3475C90.2172 19.3475 90.8602 19.5711 91.4274 19.8932V18.5036C90.8817 18.2825 90.1844 18.0956 89.3443 18.0956C86.9567 18.0956 85.3966 19.9185 85.3966 22.3983C85.3966 24.7417 86.7925 26.4648 89.1485 26.4648C90.1515 26.4648 91.1104 26.1805 91.7647 25.8079V22.373ZM93.4222 26.341H94.7309V23.1537H95.3525C95.5268 23.2043 95.7896 23.539 96.137 24.2705L97.1741 26.341H98.6787L97.4786 23.961C97.097 23.2169 96.8027 22.7697 96.5842 22.6333V22.6093C97.4141 22.3111 97.9914 21.5923 97.9914 20.5021C97.9914 19.6696 97.6857 18.9142 96.9227 18.5036C96.5412 18.2939 96.0612 18.1701 95.3853 18.1701H93.4222V26.341ZM94.7309 21.9385V19.3854H95.331C95.7226 19.3854 95.9626 19.4839 96.137 19.6203C96.454 19.8313 96.617 20.2153 96.617 20.6499C96.617 21.1577 96.4212 21.5304 96.1155 21.7287C95.8969 21.8652 95.6582 21.9385 95.3196 21.9385H94.7309ZM102.964 26.4648C105.057 26.4648 106.583 24.7909 106.583 22.2871C106.583 19.8199 105.09 18.0956 102.964 18.0956C100.838 18.0956 99.3432 19.8073 99.3432 22.2871C99.3432 24.7909 100.848 26.4648 102.964 26.4648ZM102.964 25.2129C101.633 25.2129 100.739 24.134 100.739 22.2871C100.739 20.4263 101.633 19.3475 102.964 19.3475C104.327 19.3475 105.188 20.4756 105.188 22.2871C105.188 24.134 104.284 25.2129 102.964 25.2129ZM110.945 26.4648C112.265 26.4648 113.203 25.9443 113.65 24.8895C113.836 24.4688 113.923 23.9231 113.923 23.2914V18.1701H112.614V23.1803C112.614 23.6249 112.548 23.9976 112.418 24.2945C112.167 24.8768 111.665 25.2129 110.945 25.2129C110.226 25.2129 109.725 24.8768 109.473 24.2945C109.343 23.9976 109.278 23.6249 109.278 23.1904V18.1701H107.969V23.2914C107.969 23.9117 108.056 24.4562 108.24 24.8768C108.678 25.9443 109.615 26.4648 110.945 26.4648ZM115.613 26.341H116.922V23.5264H117.226C117.87 23.5264 118.361 23.4152 118.753 23.2409C119.767 22.7697 120.127 21.7906 120.127 20.8482C120.127 19.7315 119.702 18.9382 118.961 18.5175C118.535 18.2825 118.012 18.1701 117.346 18.1701H115.613V26.341ZM116.922 22.3111V19.3854H117.292C117.685 19.3854 117.979 19.4586 118.186 19.5963C118.568 19.8566 118.753 20.3151 118.753 20.8482C118.753 21.4559 118.556 21.9018 118.153 22.1254C117.946 22.2492 117.662 22.3111 117.313 22.3111H116.922ZM128.862 24.6419C128.348 24.9779 127.804 25.2129 127.095 25.2129C125.623 25.2129 124.707 24.0229 124.707 22.2985C124.707 20.6865 125.536 19.3475 127.138 19.3475C127.836 19.3475 128.436 19.5471 128.992 19.8806V18.4922C128.545 18.2686 127.891 18.0956 127.106 18.0956C124.794 18.0956 123.311 19.9917 123.311 22.3478C123.311 24.7417 124.587 26.4648 126.943 26.4648C127.662 26.4648 128.425 26.3157 129.221 25.8205L128.862 24.6419ZM133.769 26.4648C135.862 26.4648 137.388 24.7909 137.388 22.2871C137.388 19.8199 135.896 18.0956 133.769 18.0956C131.641 18.0956 130.148 19.8073 130.148 22.2871C130.148 24.7909 131.653 26.4648 133.769 26.4648ZM133.769 25.2129C132.439 25.2129 131.544 24.134 131.544 22.2871C131.544 20.4263 132.439 19.3475 133.769 19.3475C135.132 19.3475 135.993 20.4756 135.993 22.2871C135.993 24.134 135.089 25.2129 133.769 25.2129ZM138.828 26.341H140.137V23.1537H140.759C140.933 23.2043 141.194 23.539 141.543 24.2705L142.58 26.341H144.083L142.885 23.961C142.503 23.2169 142.209 22.7697 141.99 22.6333V22.6093C142.819 22.3111 143.398 21.5923 143.398 20.5021C143.398 19.6696 143.092 18.9142 142.329 18.5036C141.947 18.2939 141.467 18.1701 140.791 18.1701H138.828V26.341ZM140.137 21.9385V19.3854H140.737C141.129 19.3854 141.37 19.4839 141.543 19.6203C141.859 19.8313 142.023 20.2153 142.023 20.6499C142.023 21.1577 141.827 21.5304 141.522 21.7287C141.303 21.8652 141.063 21.9385 140.726 21.9385H140.137ZM145.251 26.341H146.559V23.5264H146.864C147.508 23.5264 148 23.4152 148.391 23.2409C149.406 22.7697 149.764 21.7906 149.764 20.8482C149.764 19.7315 149.34 18.9382 148.598 18.5175C148.173 18.2825 147.65 18.1701 146.985 18.1701H145.251V26.341ZM146.559 22.3111V19.3854H146.93C147.323 19.3854 147.617 19.4586 147.824 19.5963C148.206 19.8566 148.391 20.3151 148.391 20.8482C148.391 21.4559 148.195 21.9018 147.792 22.1254C147.585 22.2492 147.301 22.3111 146.952 22.3111H146.559ZM154.509 26.4648C156.603 26.4648 158.129 24.7909 158.129 22.2871C158.129 19.8199 156.635 18.0956 154.509 18.0956C152.382 18.0956 150.889 19.8073 150.889 22.2871C150.889 24.7909 152.393 26.4648 154.509 26.4648ZM154.509 25.2129C153.178 25.2129 152.283 24.134 152.283 22.2871C152.283 20.4263 153.178 19.3475 154.509 19.3475C155.871 19.3475 156.733 20.4756 156.733 22.2871C156.733 24.134 155.828 25.2129 154.509 25.2129ZM159.569 26.341H160.876V23.1537H161.498C161.673 23.2043 161.935 23.539 162.284 24.2705L163.319 26.341H164.824L163.625 23.961C163.244 23.2169 162.949 22.7697 162.731 22.6333V22.6093C163.559 22.3111 164.137 21.5923 164.137 20.5021C164.137 19.6696 163.832 18.9142 163.068 18.5036C162.688 18.2939 162.208 18.1701 161.532 18.1701H159.569V26.341ZM160.876 21.9385V19.3854H161.476C161.869 19.3854 162.109 19.4839 162.284 19.6203C162.599 19.8313 162.764 20.2153 162.764 20.6499C162.764 21.1577 162.568 21.5304 162.262 21.7287C162.044 21.8652 161.803 21.9385 161.466 21.9385H160.876ZM165.207 26.341H166.547L167.223 24.2945H169.786L170.482 26.341H171.868L168.99 18.1335H167.986L165.207 26.341ZM167.604 23.0805L168.127 21.4672C168.323 20.8356 168.433 20.4756 168.499 20.1901H168.522C168.587 20.4642 168.685 20.8356 168.88 21.4559L169.382 23.0805H167.604ZM173.613 26.341H174.921V19.3854H176.85L177.189 18.1701H171.519V19.3854H173.613V26.341ZM178.083 26.341H179.392V18.1701H178.083V26.341ZM184.452 26.4648C186.545 26.4648 188.072 24.7909 188.072 22.2871C188.072 19.8199 186.579 18.0956 184.452 18.0956C182.325 18.0956 180.831 19.8073 180.831 22.2871C180.831 24.7909 182.336 26.4648 184.452 26.4648ZM184.452 25.2129C183.121 25.2129 182.227 24.134 182.227 22.2871C182.227 20.4263 183.121 19.3475 184.452 19.3475C185.815 19.3475 186.676 20.4756 186.676 22.2871C186.676 24.134 185.772 25.2129 184.452 25.2129ZM189.511 26.341H190.82V21.7035C190.82 21.2449 190.82 20.7737 190.798 20.4389H190.82C191.061 20.823 191.311 21.2335 191.627 21.6921L194.8 26.341H196V18.1701H194.68V22.5221C194.68 22.9693 194.68 23.4645 194.702 23.8978H194.68C194.462 23.5264 194.2 23.1171 193.873 22.6333L190.808 18.1701H189.511V26.341Z" fill="#202B77"/>
<path d="M72.4037 33.6191H71.3653V35.4129C71.1417 35.5152 70.7994 35.5847 70.4216 35.5847C69.2038 35.5847 68.4913 34.7863 68.4913 33.5685C68.4913 32.3672 69.2127 31.5258 70.577 31.5258C71.1859 31.5258 71.6925 31.6799 72.1384 31.9035V30.9434C71.7089 30.7881 71.1594 30.6592 70.5 30.6592C68.6202 30.6592 67.3936 31.92 67.3936 33.6367C67.3936 35.2575 68.4913 36.4501 70.3446 36.4501C71.1341 36.4501 71.8896 36.253 72.4037 35.9966V33.6191ZM73.7074 36.3642H74.737V34.1597H75.2259C75.3636 34.1939 75.5695 34.4263 75.8436 34.9316L76.6597 36.3642H77.8434L76.8997 34.7169C76.5991 34.2027 76.3679 33.8945 76.1948 33.7997V33.782C76.8479 33.5774 77.3027 33.0784 77.3027 32.3242C77.3027 31.7494 77.0627 31.2251 76.4614 30.9434C76.162 30.7969 75.7843 30.711 75.2524 30.711H73.7074V36.3642ZM74.737 33.3197V31.5511H75.2095C75.5177 31.5511 75.7072 31.6206 75.8436 31.714C76.0925 31.8606 76.2214 32.1259 76.2214 32.4265C76.2214 32.779 76.0672 33.0354 75.8259 33.1731C75.6554 33.2679 75.4659 33.3197 75.2006 33.3197H74.737ZM81.2151 36.4501C82.8624 36.4501 84.0625 35.2916 84.0625 33.5597C84.0625 31.853 82.8877 30.6592 81.2151 30.6592C79.5413 30.6592 78.3664 31.8442 78.3664 33.5597C78.3664 35.2916 79.5501 36.4501 81.2151 36.4501ZM81.2151 35.5847C80.1678 35.5847 79.4642 34.8381 79.4642 33.5597C79.4642 32.2724 80.1678 31.5258 81.2151 31.5258C82.2876 31.5258 82.9647 32.3065 82.9647 33.5597C82.9647 34.8381 82.2523 35.5847 81.2151 35.5847ZM87.4949 36.4501C88.5333 36.4501 89.271 36.09 89.6222 35.3611C89.7688 35.068 89.837 34.6916 89.837 34.2545V30.711H88.8074V34.1762C88.8074 34.4857 88.7556 34.7434 88.6533 34.9493C88.4562 35.3523 88.0608 35.5847 87.4949 35.5847C86.9289 35.5847 86.5335 35.3523 86.3364 34.9493C86.2341 34.7434 86.1823 34.4857 86.1823 34.185V30.711H85.1527V34.2545C85.1527 34.6827 85.221 35.0605 85.3675 35.3523C85.7098 36.09 86.4489 36.4501 87.4949 36.4501ZM91.1672 36.3642H92.1955V34.4175H92.4356C92.9421 34.4175 93.3287 34.3391 93.6382 34.2204C94.4353 33.8945 94.7183 33.2161 94.7183 32.5642C94.7183 31.7924 94.3835 31.2428 93.7999 30.9523C93.4651 30.7881 93.0546 30.711 92.5316 30.711H91.1672V36.3642ZM92.1955 33.5774V31.5511H92.4873C92.7968 31.5511 93.0293 31.6029 93.1923 31.6976C93.4917 31.877 93.6382 32.1953 93.6382 32.5642C93.6382 32.9849 93.4828 33.2931 93.1657 33.4473C93.0028 33.5344 92.7792 33.5774 92.505 33.5774H92.1955ZM100.072 36.4501C101.719 36.4501 102.921 35.2916 102.921 33.5597C102.921 31.853 101.745 30.6592 100.072 30.6592C98.3995 30.6592 97.2234 31.8442 97.2234 33.5597C97.2234 35.2916 98.4071 36.4501 100.072 36.4501ZM100.072 35.5847C99.0248 35.5847 98.3224 34.8381 98.3224 33.5597C98.3224 32.2724 99.0248 31.5258 100.072 31.5258C101.145 31.5258 101.822 32.3065 101.822 33.5597C101.822 34.8381 101.11 35.5847 100.072 35.5847ZM104.053 36.3642H105.082V33.9033H106.884V33.062H105.082V31.5511H106.918L107.184 30.711H104.053V36.3642ZM113.919 35.1893C113.515 35.4218 113.088 35.5847 112.529 35.5847C111.371 35.5847 110.65 34.7598 110.65 33.5685C110.65 32.4518 111.303 31.5258 112.563 31.5258C113.112 31.5258 113.584 31.6635 114.022 31.8947V30.9346C113.671 30.7792 113.155 30.6592 112.538 30.6592C110.719 30.6592 109.552 31.9717 109.552 33.6014C109.552 35.2575 110.556 36.4501 112.408 36.4501C112.975 36.4501 113.575 36.3477 114.202 36.0054L113.919 35.1893ZM117.779 36.4501C119.427 36.4501 120.628 35.2916 120.628 33.5597C120.628 31.853 119.453 30.6592 117.779 30.6592C116.107 30.6592 114.932 31.8442 114.932 33.5597C114.932 35.2916 116.116 36.4501 117.779 36.4501ZM117.779 35.5847C116.732 35.5847 116.03 34.8381 116.03 33.5597C116.03 32.2724 116.732 31.5258 117.779 31.5258C118.852 31.5258 119.529 32.3065 119.529 33.5597C119.529 34.8381 118.818 35.5847 117.779 35.5847ZM121.761 36.3642H122.79V33.1479C122.79 32.9508 122.79 32.6577 122.781 32.4354H122.798C122.911 32.6489 123.065 32.8472 123.185 33.0177L124.421 34.7952H124.892L126.007 33.062C126.11 32.9078 126.315 32.5895 126.394 32.4265H126.41C126.394 32.6489 126.394 32.9419 126.394 33.1731V36.3642H127.431V30.711H126.487L125.133 32.8118C124.935 33.1138 124.789 33.3626 124.669 33.5774H124.652C124.523 33.3538 124.378 33.139 124.181 32.8472L122.696 30.711H121.761V36.3642ZM128.804 36.3642H129.834V34.4175H130.074C130.58 34.4175 130.967 34.3391 131.275 34.2204C132.073 33.8945 132.356 33.2161 132.356 32.5642C132.356 31.7924 132.022 31.2428 131.438 30.9523C131.103 30.7881 130.691 30.711 130.168 30.711H128.804V36.3642ZM129.834 33.5774V31.5511H130.126C130.435 31.5511 130.666 31.6029 130.829 31.6976C131.13 31.877 131.275 32.1953 131.275 32.5642C131.275 32.9849 131.121 33.2931 130.804 33.4473C130.64 33.5344 130.417 33.5774 130.143 33.5774H129.834ZM132.408 36.3642H133.462L133.994 34.9493H136.011L136.561 36.3642H137.65L135.385 30.6857H134.595L132.408 36.3642ZM134.296 34.1092L134.706 32.9937C134.862 32.5554 134.946 32.3065 134.998 32.1094H135.016C135.067 32.2977 135.145 32.5554 135.3 32.9849L135.693 34.1092H134.296ZM138.413 36.3642H139.443V33.1567C139.443 32.8384 139.443 32.5124 139.426 32.28H139.443C139.63 32.5465 139.829 32.8295 140.078 33.1479L142.574 36.3642H143.518V30.711H142.479V33.7227C142.479 34.0309 142.479 34.3745 142.497 34.6739H142.479C142.307 34.4175 142.101 34.1332 141.845 33.7997L139.435 30.711H138.413V36.3642ZM144.882 36.3642H145.911V30.711H144.882V36.3642ZM147.285 36.3642H150.415V35.5241H148.313V33.9033H150.123V33.062H148.313V31.5511H150.132L150.407 30.711H147.285V36.3642ZM151.316 35.9612C151.745 36.2618 152.362 36.4501 153.024 36.4501C154.182 36.4501 155.04 35.8323 155.04 34.8293C155.04 33.0354 152.594 33.1731 152.594 32.1347C152.594 31.6799 152.972 31.5258 153.366 31.5258C153.813 31.5258 154.267 31.6547 154.714 31.8858V30.9434C154.406 30.7881 153.916 30.6592 153.332 30.6592C152.157 30.6592 151.496 31.3881 151.496 32.2219C151.496 33.945 153.941 33.8073 153.941 34.9139C153.941 35.4041 153.468 35.5847 152.997 35.5847C152.483 35.5847 152.054 35.4041 151.72 35.1716L151.316 35.9612Z" fill="#202B77"/>
</svg>
