<?xml version="1.0" encoding="UTF-8"?>
<svg id="Layer_2" data-name="Layer 2" xmlns="http://www.w3.org/2000/svg" viewBox="0 0 164.71 59.45">
  <defs>
    <style>
      .cls-1, .cls-2 {
        fill: #202b77;
      }

      .cls-3 {
        fill: #f3ae30;
      }

      .cls-2 {
        fill-rule: evenodd;
      }

      .cls-4 {
        fill: #0684b7;
      }
    </style>
  </defs>
  <g id="Layer_1-2" data-name="Layer 1">
    <path class="cls-4" d="M34.58,40.12c.15.72.3,1.45.45,2.2.32-.18.54-.45.75-.72.89-1.15,1.38-2.47,1.7-3.87.11-.48.18-.96.27-1.44.04,0,.08-.02.09-.06,1.13-1.64,1.94-3.44,2.44-5.37.31-1.21.51-2.44.52-3.7.04-.06.04-.12.01-.18.04-.34.04-.68,0-1.02.02-.08.03-.17-.02-.24-.04-1.72-.35-3.4-.81-5.05-1.09-3.86-2.98-7.33-5.29-10.58-1.31-1.85-2.75-3.6-4.33-5.22-.09-.09-.16-.17-.15-.31.04-1.51.07-3.02.11-4.52.1-.04.13.03.17.07,3.29,3.23,6.25,6.74,8.71,10.65,2.19,3.49,3.92,7.17,4.93,11.18.58,2.3.79,4.64.62,7-.25,3.56-1.56,6.73-3.72,9.56-2.1,2.75-4.73,4.9-7.7,6.65-.69.41-1.41.76-2.11,1.14-1.04.56-2.14.68-3.29.52-.7-.1-1.4-.22-2.09-.41-.1-.03-.2-.06-.34-.1.09-.13.21-.16.31-.21,2.12-1.07,4.16-2.28,6.07-3.7.88-.66,1.74-1.36,2.54-2.11.06-.05.1-.13.19-.13"/>
    <path class="cls-3" d="M37.87,32.07c-.08-.88-.14-1.77-.28-2.65,0-.04,0-.07-.02-.15-2.04,2.62-4.65,4.5-7.37,6.33.86.24,1.68.46,2.53.7-.49.48-1.01.88-1.53,1.28-1.08.83-2.2,1.6-3.4,2.24-.17.09-.34.16-.52.24h-.26c-.04-.14.03-.25.07-.36.98-2.85,1.76-5.75,2.27-8.72.18-1.04.32-2.09.48-3.14.61,1.33,1.23,2.67,1.84,4,.14.31.22.71.46.89.26.19.68.02,1.02.06.28.03.35-.06.35-.34,0-4.44,0-8.87,0-13.31,0-.42,0-.84.05-1.26.09-.92.43-1.23,1.35-1.24.18,0,.36,0,.54,0,.07,0,.14.01.19-.06.07-.5-.01-1,.05-1.5,1.49,2.64,2.61,5.42,3.13,8.42.27,1.54.35,3.08.17,4.63-.15,1.33-.47,2.61-1.02,3.83-.02.04-.05.08-.08.12M32.42,10.21c-1.3.02-2.6.04-3.9.06-.77-2.77-1.81-5.44-3.25-7.94.13-.09.2.03.28.1,1.26,1.08,2.42,2.26,3.52,3.49,1.15,1.28,2.23,2.63,3.23,4.03.05.07.1.15.15.23-.02,0-.03.02-.02.04ZM35.5,14.87c-1.69,0-3.39,0-5.08,0-.24,0-.34.04-.32.31.02.37.02.74,0,1.11-.01.26.04.37.34.35.27-.02.54,0,.81.04.5.07.71.28.81.78.1.47.11.95.11,1.43,0,3.04,0,6.07,0,9.11,0,.05,0,.1-.06.16-.66-1.47-1.33-2.94-1.99-4.41,0-.11-.02-.22-.01-.33.06-.9.03-1.8,0-2.7-.07-2.31-.33-4.61-.75-6.88-.06-.33-.19-.65-.15-.99,1.11-.14,2.21-.28,3.32-.4.24-.03.34-.1.32-.36-.03-.43,0-.86,0-1.28.28.24.45.55.66.84.7.97,1.34,1.98,1.94,3.01.04.07.11.13.05.22Z"/>
    <path class="cls-1" d="M12.96,30.8c-.5.71-1.07,1.35-1.83,1.79-1.81,1.06-4.31.78-5.88-.68-1.17-1.08-1.85-2.44-2.29-3.94-.31-1.07-.47-2.17-.5-3.28,0-.09-.02-.18-.03-.27.02-.04.03-.09,0-.13,0-1.09.04-2.18.24-3.26.36-1.93,1.11-3.67,2.53-5.08,1-.99,2.21-1.51,3.63-1.45.91.03,1.74.34,2.52.8.44.26.88.52,1.31.79.25.16.39.08.5-.15.16-.33.22-.68.25-1.04.01-.17.07-.22.23-.22.81-.03.81-.03.81.77,0,1.83,0,3.67,0,5.5,0,.22-.03.31-.29.31-.65-.02-.65,0-.83-.63-.36-1.22-.85-2.37-1.76-3.3-1.22-1.24-3.09-1.49-4.41-.59-.87.59-1.34,1.47-1.69,2.42-.46,1.26-.64,2.58-.66,3.91-.04.14-.03.28-.02.43-.03.22-.03.44,0,.66-.02.14-.03.29.02.43.05,1.75.31,3.45,1.15,5.01.49.9,1.17,1.6,2.22,1.83,1.78.38,3.49-.52,4.2-2.21.47-1.1.53-2.25.35-3.41-.1-.67-.46-.98-1.15-1.06-.27-.03-.54-.04-.81-.03-.16,0-.24-.02-.23-.21.01-.43,0-.86,0-1.29,0-.16.06-.2.21-.2,1.88,0,3.77,0,5.65,0,.16,0,.21.05.2.21,0,.14,0,.28.01.42,0,.36-.02.72-.03,1.07-.32.01-.64.04-.95.13-.48.13-.77.44-.88.92-.12.5-.13,1.01-.13,1.52,0,1.73,0,3.46,0,5.19,0,.24-.06.3-.3.3-.62-.01-.62,0-.78-.59-.13-.46-.26-.92-.39-1.38-.02-.06,0-.15-.08-.15-.06,0-.09.09-.11.15M0,34.29c0-.66,0-1.33,0-1.99.04-.5.07-1,.11-1.5.01-.1.03-.21.04-.31,2.17,2.21,4.77,3.82,7.31,5.52.09.06.2.09.27.22-.78.26-1.54.52-2.35.8.2.23.42.37.63.53,1.63,1.23,3.32,2.37,5.23,3.14.83.34,1.69.62,2.6.62.08,0,.16,0,.24,0,1.26.05,1.99-.6,2.21-1.98.14-.85.09-1.72.12-2.58.1-2.83.17-5.66.26-8.49,0-.06,0-.12,0-.18.03-.1.05-.2.02-.3.06-.58.03-1.16.05-1.74.04-.1.04-.2.02-.31.03-.34.03-.68.01-1.02.03-.36.07-.72.05-1.08.01-.46.02-.92.03-1.38.05-.1.04-.2.02-.31.01-.54.03-1.08.04-1.62.04-.06.03-.12.01-.19.04-1.16.08-2.31.12-3.47.03-.78.05-1.56.07-2.34,0-.07-.02-.14-.02-.21,0-.05-.02-.07-.07-.06-.77-.05-1.53-.11-2.3-.16-1.44-.09-2.87-.18-4.31-.27-.04-.03-.08-.03-.12-.02-.26-.01-.52-.03-.78-.04-.04-.04-.08-.04-.12-.02-.26-.01-.52-.03-.78-.04-.04-.04-.08-.03-.12-.02-1.42-.1-2.85-.2-4.27-.28-.24-.01-.32-.07-.31-.32.02-.58.02-1.16,0-1.74,0-.21.05-.28.26-.28.38,0,.76.02,1.14-.03.08.03.16.02.24-.02,1.71-.05,3.42-.1,5.13-.15,1.41-.04,2.82-.09,4.23-.14.62-.02,1.24-.06,1.86-.05.29,0,.37-.1.34-.36-.02-.11-.01-.22-.02-.33.03-.1.03-.2,0-.3,0-.04,0-.08.02-.12.06-.32-.06-.45-.38-.56-1.66-.55-2.77-1.64-3.02-3.42-.21-1.49.39-2.7,1.55-3.63,1.9-1.52,4.84-1.26,6.44.56,1.67,1.9,1.17,4.73-1.07,6.05-.32.19-.65.35-1.01.45-.14.04-.19.1-.19.25.01.38.01.76.01,1.14,0,.13.02.21.18.21,1.06-.03,2.12-.05,3.18-.07.12.02.24.03.37-.01.96-.02,1.92-.03,2.88-.05.14.02.29.03.43-.01.68-.01,1.36-.02,2.05-.04,1.3-.02,2.6-.04,3.9-.06.1,0,.2,0,.3,0,.17.03.11.16.12.26,0,.11.01.22.02.33,0,.43-.03.86,0,1.28.02.27-.09.34-.32.36-1.11.13-2.21.27-3.32.4-.34.04-.67.08-1.01.12-1.52.19-3.03.39-4.55.58-1.22.15-2.44.31-3.66.45-.18.02-.22.1-.21.27.08.88.14,1.75.21,2.63.13,1.55.27,3.11.4,4.66.13,1.58.25,3.15.38,4.73.14,1.68.29,3.37.43,5.05.19,2.24.37,4.49.57,6.73.07.8.28,1.58.76,2.25.32.44.71.79,1.28.78,1.24-.03,2.38-.45,3.46-1.05.17-.08.35-.15.52-.24,1.2-.64,2.33-1.41,3.4-2.24.52-.4,1.04-.8,1.53-1.28-.85-.24-1.66-.46-2.53-.7,2.72-1.83,5.33-3.71,7.37-6.33.01.08.01.12.02.15.14.88.19,1.77.28,2.65,0,.89.05,1.77-.01,2.66-.03.5-.08.99-.11,1.49,0,.02,0,.04,0,.06-.09.48-.16.97-.27,1.44-.31,1.4-.81,2.72-1.7,3.87-.21.27-.43.54-.75.72-.15-.75-.3-1.47-.45-2.2-.03-.49-.17-.96-.25-1.45-.05-.26-.17-.07-.23,0-.68.74-1.38,1.45-2.13,2.12-1.84,1.64-3.82,3.08-6.1,4.04-.53.22-1.11.25-1.65.42-1.83.55-3.46,1.41-4.66,2.95-.08.1-.12.16-.24.03-1.15-1.2-2.58-1.94-4.13-2.47-.72-.25-1.45-.43-2.2-.58-1.04-.22-1.99-.67-2.91-1.16-2.08-1.11-3.94-2.53-5.67-4.11-.1-.09-.2-.2-.31-.28-.07-.06-.12-.2-.23-.15-.09.04-.05.16-.06.25-.14,1.15-.28,2.3-.43,3.46-.15.01-.21-.11-.29-.18-1.05-.96-1.69-2.16-2.16-3.48-.5-1.43-.73-2.9-.85-4.4-.02-.27-.04-.54-.06-.81ZM18.09,2.75s.06.06.02.1c-.14.02-.28.03-.42.05-1.33.22-2.13,1.55-1.66,2.76.2.51.56.86,1.07,1.13,0-.38,0-.7,0-1.02,0-.33.11-.61.37-.81.37-.29.78-.35,1.21-.17.43.18.65.52.67.98.01.3,0,.61,0,.93,1.24-.63,1.44-2.25.46-3.2-.13-.12-.3-.19-.39-.35.08-.08.14,0,.2.03.37.2.69.47.97.79.05.06.08.17.21.13-.01-.41-.23-.72-.52-.97-.46-.4-1-.64-1.58-.82-.32-.1-.59.04-.7.36-.03.08.03.07.08.08ZM20.46,38.98c-.51-3.6-1.02-7.15-1.52-10.7-.04,0-.08,0-.12.01.06,3.48.12,6.97.19,10.49.51-.2.95.03,1.45.2ZM30.8,11.13v-.06c-.11,0-.23-.03-.35-.03-2.5.07-5,.15-7.51.22-.19,0-.24.08-.23.25.02.33.03.66.03.99,0,.2.06.24.25.2.69-.15,1.39-.28,2.08-.42,1.91-.38,3.82-.77,5.73-1.15ZM35.66,38.16c.43-.37.72-.73.97-1.12.6-.91.94-1.89.85-2.99,0-.11.04-.27-.17-.22-.56.14-1.12.29-1.68.44-.09.02-.15.06-.08.16.24.4.26.86.27,1.3.03.78-.06,1.55-.17,2.42ZM2.54,39.1c-.02-.16-.03-.24-.05-.31-.17-.86-.24-1.72-.21-2.59,0-.29.25-.65.03-.86-.2-.19-.57-.22-.86-.31-.46-.15-.46-.15-.46.33,0,.11,0,.22.02.33.1,1.07.51,2.02,1.1,2.91.11.16.19.34.43.51ZM18.89,8.74c-.04-1.05-.06-2.07-.11-3.1-.01-.28-.19-.44-.49-.48-.18-.03-.23.01-.22.2.03.96.06,1.92.09,2.87,0,.08-.03.19.08.24.21.09.39.23.65.27ZM35.85,0c1.44,1.18,2.73,2.42,3.96,3.73,2.6,2.75,4.8,5.8,6.53,9.16,1.59,3.08,2.77,6.31,3.39,9.73.37,2.01.52,4.03.39,6.07-.28,4.32-1.87,8.11-4.84,11.29-2.66,2.85-5.9,4.83-9.51,6.21-.52.2-1.06.36-1.59.54-.03,0-.06,0-.14,0,.44-.3.85-.57,1.25-.85,2.33-1.62,4.48-3.44,6.34-5.59,2.52-2.9,4.29-6.18,5.01-9.99.4-2.09.44-4.2.17-6.31-.5-3.98-1.94-7.63-3.89-11.1-1.83-3.25-4.07-6.21-6.55-8.99-.37-.41-.56-.82-.53-1.39.05-.82.01-1.64.01-2.52ZM57.49,56.78c-.48.57-1.12.93-1.76,1.26-1.4.72-2.92,1.08-4.47,1.27-3.12.38-6.16-.06-9.19-.74-3.21-.71-6.41-1.43-9.62-2.15-2.43-.55-4.86-1.13-7.31-1.63-2.91-.59-5.85-.89-8.83-.76-1.81.08-3.6.32-5.36.77-.03,0-.06,0-.1,0,.02-.09.09-.09.14-.12.06-.04.12-.06.19-.09,1.79-.86,3.69-1.36,5.64-1.64,3.71-.53,7.36-.16,10.97.74,5.1,1.26,10.19,2.54,15.31,3.67,2.29.51,4.61.81,6.96.75,2.47-.07,4.89-.44,7.23-1.29.06-.02.12-.03.17-.04l.02.02ZM59.96,54.2c-.57.46-1.24.77-1.9,1.06-1.55.67-3.19,1.04-4.86,1.22-2.39.26-4.75.12-7.11-.28-3.06-.52-6.13-1.01-9.17-1.67-1.42-.31-2.82-.72-4.24-1.06-2.22-.54-4.47-.96-6.74-1.27-2.14-.29-4.28-.46-6.43-.43-1.78.03-3.53.2-5.25.69-.09.02-.18.04-.26.06-.13.02-.27.03-.41.02,3.72-1.78,7.61-2.72,11.8-2.39-1.32-1.04-2.63-2.09-3.99-3.16.3-.02.52.09.75.14,1.77.43,3.57.7,5.38.88,1.99.19,3.98.23,5.97.1,2.99-.2,5.93-.71,8.75-1.75,1.39-.51,2.78-1,4.17-1.51.9-.33,1.85-.53,2.82-.46.28.02.55.09.78.28.35.29.36.7.03.99-1.7,1.48-3.4,2.96-5.09,4.45-.14.13-.22.12-.36,0-.82-.68-1.76-1.05-2.84-1.01-.61.02-1.17.25-1.73.46-1.73.66-3.47,1.27-5.29,1.62-.63.12-1.27.18-1.95.14.16.18.37.19.54.27.77.41,1.5.37,2.33.05,1.57-.6,3.19-1.09,4.85-1.44.77-.16,1.54-.25,2.32-.02.47.14.82.41.87.95.04.48-.25,1-.7,1.24-.3.16-.63.19-.96.2-1.24.02-2.48.03-3.73.05-.13,0-.25,0-.38,0,0,.14.09.13.15.15,3.28,1.09,6.63,1.87,10.06,2.3,2.18.27,4.37.38,6.56.21,1.71-.13,3.39-.42,5-1.03.07-.03.15-.04.23-.07.01.01.02.03.04.04ZM35.62,16.56c-.04.08-.12.06-.19.06-.18,0-.36,0-.54,0-.92.01-1.26.32-1.35,1.24-.04.42-.05.84-.05,1.26,0,4.44,0,8.88,0,13.31,0,.28-.07.37-.35.34-.35-.04-.77.13-1.02-.06-.24-.18-.32-.58-.46-.89-.62-1.33-1.23-2.67-1.84-4-.03-.08-.04-.17-.08-.25-1.42-3.11-2.84-6.22-4.26-9.33-.03-.06-.03-.15-.13-.17-.06.06-.04.12-.04.18,0,3.52,0,7.03,0,10.55,0,.47.02.94.1,1.41.09.5.3.7.8.8.25.05.5.05.75.04.15,0,.22.03.21.2,0,.44,0,.88,0,1.32,0,.15-.04.21-.2.21-1.62,0-3.25,0-4.87,0-.14,0-.19-.04-.19-.18,0-.45,0-.9,0-1.35,0-.14.04-.19.19-.19.24,0,.48,0,.72,0,.64-.03.96-.31,1.1-.93.08-.37.11-.75.11-1.13,0-3.33,0-6.65,0-9.98,0-.5-.02-1-.12-1.49-.1-.46-.39-.75-.86-.85-.31-.06-.62-.04-.93-.04-.16,0-.21-.05-.2-.21,0-.42.01-.84,0-1.26,0-.19.05-.25.25-.25,1.2,0,2.4,0,3.61,0,.19,0,.28.05.36.23,1.26,2.8,2.54,5.59,3.81,8.38.04.09.05.2.16.25.66,1.47,1.33,2.94,1.99,4.41.06-.07.06-.12.06-.16,0-3.04,0-6.07,0-9.11,0-.48,0-.96-.11-1.43-.11-.5-.31-.71-.81-.78-.27-.04-.54-.07-.81-.04-.29.02-.35-.09-.34-.35.02-.37.02-.74,0-1.11-.02-.26.08-.31.32-.31,1.69,0,3.39,0,5.08,0,.03.02.06.04.1.07,0,.54.02,1.09.03,1.63Z"/>
    <path class="cls-2" d="M17.54,2.93c.95-.19,1.67-.02,2.18.49,0-.05.02-.11.03-.16-.43-.46-1.11-.62-1.96-.59-.08.09-.17.18-.25.27"/>
    <path class="cls-1" d="M159.57,27.13h1.04v-3.67c0-.36,0-.74-.02-1h.02c.19.3.39.63.64.99l2.51,3.68h.95v-6.47h-1.04v3.45c0,.35,0,.75.02,1.09h-.02c-.17-.29-.38-.62-.64-1l-2.43-3.53h-1.03v6.47ZM155.57,26.24c-1.05,0-1.76-.85-1.76-2.32s.71-2.33,1.76-2.33,1.76.89,1.76,2.33-.72,2.32-1.76,2.32ZM155.57,27.23c1.66,0,2.87-1.32,2.87-3.31s-1.18-3.32-2.87-3.32-2.87,1.35-2.87,3.32,1.19,3.31,2.87,3.31ZM150.53,27.13h1.04v-6.47h-1.04v6.47ZM146.99,27.13h1.04v-5.51h1.53l.27-.96h-4.49v.96h1.66v5.51ZM142.23,24.55l.41-1.28c.16-.5.24-.79.29-1.01h.02c.05.22.13.51.28,1l.4,1.29h-1.41ZM140.33,27.13h1.06l.54-1.62h2.03l.55,1.62h1.1l-2.28-6.5h-.79l-2.2,6.5ZM136.91,23.65v-2.02h.47c.31,0,.5.08.64.19.25.17.38.47.38.81,0,.4-.16.7-.4.85-.17.11-.36.17-.63.17h-.47ZM135.87,27.13h1.04v-2.52h.49c.14.04.35.3.62.88l.82,1.64h1.19l-.95-1.88c-.3-.59-.53-.94-.71-1.05v-.02c.66-.24,1.11-.8,1.11-1.67,0-.66-.24-1.26-.85-1.58-.3-.17-.68-.26-1.22-.26h-1.55v6.47ZM131.86,26.24c-1.05,0-1.76-.85-1.76-2.32s.71-2.33,1.76-2.33,1.76.89,1.76,2.33-.72,2.32-1.76,2.32ZM131.86,27.23c1.66,0,2.87-1.32,2.87-3.31s-1.18-3.32-2.87-3.32-2.87,1.35-2.87,3.32,1.19,3.31,2.87,3.31ZM125.57,23.94v-2.32h.29c.31,0,.54.06.71.17.3.21.45.57.45.99,0,.48-.16.83-.47,1.01-.16.1-.39.15-.66.15h-.31ZM124.54,27.13h1.04v-2.23h.24c.51,0,.9-.09,1.21-.23.8-.37,1.09-1.15,1.09-1.89,0-.88-.34-1.51-.92-1.85-.34-.19-.75-.28-1.28-.28h-1.37v6.47ZM120.49,23.65v-2.02h.47c.31,0,.5.08.64.19.25.17.38.47.38.81,0,.4-.16.7-.4.85-.17.11-.36.17-.63.17h-.47ZM119.45,27.13h1.04v-2.52h.49c.14.04.35.3.62.88l.82,1.64h1.19l-.95-1.88c-.3-.59-.53-.94-.71-1.05v-.02c.66-.24,1.11-.8,1.11-1.67,0-.66-.24-1.26-.85-1.58-.3-.17-.68-.26-1.22-.26h-1.55v6.47ZM115.45,26.24c-1.05,0-1.76-.85-1.76-2.32s.71-2.33,1.76-2.33,1.76.89,1.76,2.33-.72,2.32-1.76,2.32ZM115.45,27.23c1.66,0,2.87-1.32,2.87-3.31s-1.18-3.32-2.87-3.32-2.87,1.35-2.87,3.32,1.19,3.31,2.87,3.31ZM111.56,25.79c-.41.27-.84.45-1.4.45-1.17,0-1.89-.94-1.89-2.31,0-1.28.66-2.34,1.93-2.34.55,0,1.03.16,1.47.42v-1.1c-.35-.18-.87-.31-1.49-.31-1.83,0-3,1.5-3,3.37s1.01,3.26,2.87,3.26c.57,0,1.17-.12,1.8-.51l-.28-.93ZM102.11,23.94v-2.32h.29c.31,0,.54.06.71.17.3.21.45.57.45.99,0,.48-.16.83-.47,1.01-.16.1-.39.15-.67.15h-.31ZM101.07,27.13h1.04v-2.23h.24c.51,0,.9-.09,1.21-.23.8-.37,1.09-1.15,1.09-1.89,0-.88-.34-1.51-.92-1.85-.34-.19-.75-.28-1.28-.28h-1.37v6.47ZM97.38,27.23c1.04,0,1.79-.41,2.14-1.25.15-.33.22-.77.22-1.27v-4.05h-1.04v3.97c0,.35-.05.65-.16.88-.2.46-.6.73-1.17.73s-.97-.26-1.17-.73c-.1-.24-.16-.53-.16-.87v-3.98h-1.04v4.05c0,.49.07.92.22,1.26.35.84,1.09,1.26,2.14,1.26ZM91.06,26.24c-1.05,0-1.76-.85-1.76-2.32s.71-2.33,1.76-2.33,1.76.89,1.76,2.33-.72,2.32-1.76,2.32ZM91.06,27.23c1.66,0,2.87-1.32,2.87-3.31s-1.18-3.32-2.87-3.32-2.87,1.35-2.87,3.32,1.19,3.31,2.87,3.31ZM84.55,23.65v-2.02h.47c.31,0,.5.08.64.19.25.17.38.47.38.81,0,.4-.16.7-.4.85-.17.11-.36.17-.63.17h-.47ZM83.51,27.13h1.04v-2.52h.49c.14.04.35.3.62.88l.82,1.64h1.19l-.95-1.88c-.3-.59-.53-.94-.71-1.05v-.02c.66-.24,1.11-.8,1.11-1.67,0-.66-.24-1.26-.85-1.58-.3-.17-.68-.26-1.22-.26h-1.55v6.47ZM82.2,23.99h-1.04v2.05c-.22.12-.57.2-.95.2-1.23,0-1.94-.91-1.94-2.31s.73-2.34,2.1-2.34c.61,0,1.12.18,1.57.43v-1.1c-.43-.18-.98-.32-1.65-.32-1.89,0-3.12,1.44-3.12,3.41,0,1.85,1.1,3.22,2.97,3.22.79,0,1.55-.23,2.07-.52v-2.72ZM69.26,27.13h1.04v-3.67c0-.36,0-.74-.02-1h.02c.19.3.39.63.64.99l2.51,3.68h.95v-6.47h-1.04v3.45c0,.35,0,.75.02,1.09h-.02c-.17-.29-.38-.62-.64-1l-2.43-3.53h-1.03v6.47ZM67.95,23.99h-1.04v2.05c-.22.12-.57.2-.95.2-1.23,0-1.94-.91-1.94-2.31s.73-2.34,2.1-2.34c.61,0,1.12.18,1.57.43v-1.1c-.43-.18-.98-.32-1.65-.32-1.89,0-3.12,1.44-3.12,3.41,0,1.85,1.1,3.22,2.97,3.22.79,0,1.55-.23,2.07-.52v-2.72Z"/>
    <path class="cls-1" d="M129.83,36.34c.34.24.83.39,1.35.39.92,0,1.6-.49,1.6-1.28,0-1.42-1.94-1.31-1.94-2.13,0-.36.3-.48.61-.48.35,0,.71.1,1.07.29v-.75c-.24-.12-.63-.22-1.09-.22-.93,0-1.45.58-1.45,1.24,0,1.37,1.94,1.26,1.94,2.13,0,.39-.37.53-.75.53-.41,0-.75-.14-1.01-.33l-.32.62ZM126.64,36.66h2.48v-.67h-1.66v-1.28h1.43v-.67h-1.43v-1.2h1.44l.22-.67h-2.47v4.48ZM124.74,36.66h.81v-4.48h-.81v4.48ZM119.62,36.66h.81v-2.54c0-.25,0-.51-.01-.69h.01c.15.21.31.43.5.69l1.98,2.55h.75v-4.48h-.82v2.38c0,.24,0,.52.01.75h-.01c-.14-.2-.3-.43-.5-.69l-1.91-2.44h-.81v4.48ZM116.36,34.87l.33-.88c.12-.35.19-.54.23-.7h.01c.04.15.1.35.22.69l.31.89h-1.11ZM114.86,36.66h.84l.42-1.12h1.6l.43,1.12h.86l-1.79-4.5h-.62l-1.73,4.5ZM112.83,34.45v-1.6h.23c.24,0,.43.04.56.12.24.14.35.39.35.69,0,.33-.12.58-.37.7-.13.07-.31.1-.52.1h-.24ZM112.01,36.66h.81v-1.54h.19c.4,0,.71-.06.95-.16.63-.26.86-.79.86-1.31,0-.61-.26-1.05-.73-1.28-.27-.13-.59-.19-1.01-.19h-1.08v4.48ZM106.44,36.66h.82v-2.55c0-.16,0-.39,0-.56h.01c.09.17.21.33.31.46l.98,1.41h.37l.88-1.37c.08-.12.24-.37.31-.5h.01c-.01.18-.01.41-.01.59v2.53h.82v-4.48h-.75l-1.07,1.66c-.16.24-.27.43-.37.6h-.01c-.1-.18-.22-.35-.37-.58l-1.17-1.69h-.74v4.48ZM103.28,36.04c-.83,0-1.39-.59-1.39-1.6s.56-1.61,1.39-1.61,1.39.62,1.39,1.61-.56,1.6-1.39,1.6ZM103.28,36.73c1.3,0,2.25-.92,2.25-2.29s-.93-2.3-2.25-2.3-2.25.94-2.25,2.3.94,2.29,2.25,2.29ZM100.23,35.73c-.32.18-.66.31-1.1.31-.92,0-1.49-.65-1.49-1.6,0-.88.52-1.62,1.51-1.62.43,0,.81.11,1.15.29v-.76c-.28-.12-.69-.22-1.18-.22-1.44,0-2.36,1.04-2.36,2.33s.79,2.25,2.26,2.25c.45,0,.92-.08,1.42-.35l-.22-.65ZM92.42,36.66h.81v-1.95h1.43v-.67h-1.43v-1.2h1.45l.21-.67h-2.48v4.48ZM89.27,36.04c-.83,0-1.39-.59-1.39-1.6s.56-1.61,1.39-1.61,1.39.62,1.39,1.61-.56,1.6-1.39,1.6ZM89.27,36.73c1.3,0,2.25-.92,2.25-2.29s-.93-2.3-2.25-2.3-2.25.94-2.25,2.3.94,2.29,2.25,2.29ZM83.03,34.45v-1.6h.23c.24,0,.43.04.56.12.24.14.35.39.35.69,0,.33-.12.58-.37.7-.13.07-.31.1-.52.1h-.24ZM82.22,36.66h.81v-1.54h.19c.4,0,.71-.06.95-.16.63-.26.86-.79.86-1.31,0-.61-.26-1.05-.73-1.28-.26-.13-.59-.19-1.01-.19h-1.08v4.48ZM79.31,36.73c.82,0,1.41-.29,1.68-.86.12-.23.17-.53.17-.88v-2.8h-.81v2.74c0,.24-.04.45-.12.61-.16.32-.47.5-.92.5s-.76-.18-.92-.5c-.08-.16-.12-.37-.12-.6v-2.75h-.82v2.8c0,.34.05.64.17.87.27.58.86.87,1.68.87ZM74.34,36.04c-.83,0-1.39-.59-1.39-1.6s.56-1.61,1.39-1.61,1.39.62,1.39,1.61-.56,1.6-1.39,1.6ZM74.34,36.73c1.3,0,2.25-.92,2.25-2.29s-.93-2.3-2.25-2.3-2.25.94-2.25,2.3.94,2.29,2.25,2.29ZM69.21,34.25v-1.4h.37c.24,0,.39.05.5.13.2.12.3.33.3.56,0,.28-.12.48-.31.59-.14.07-.29.12-.5.12h-.37ZM68.4,36.66h.82v-1.75h.39c.11.03.27.21.49.61l.65,1.13h.94l-.75-1.3c-.24-.41-.42-.65-.56-.73h0c.52-.18.88-.57.88-1.17,0-.45-.19-.87-.67-1.09-.24-.12-.54-.18-.96-.18h-1.22v4.48ZM67.37,34.48h-.82v1.42c-.18.08-.45.14-.75.14-.96,0-1.53-.63-1.53-1.6s.57-1.62,1.65-1.62c.48,0,.88.12,1.24.3v-.76c-.34-.12-.77-.22-1.3-.22-1.49,0-2.46,1-2.46,2.36,0,1.28.87,2.23,2.34,2.23.63,0,1.22-.16,1.63-.36v-1.88Z"/>
  </g>
</svg>