<svg width="18" height="18" viewBox="0 0 18 18" fill="none" xmlns="http://www.w3.org/2000/svg">
<g clip-path="url(#clip0_4115_4169)">
<path d="M9 18C13.9706 18 18 13.9706 18 9C18 4.02944 13.9706 0 9 0C4.02944 0 0 4.02944 0 9C0 13.9706 4.02944 18 9 18Z" fill="#F0F0F0"/>
<path d="M0 9C0 13.9705 4.02947 18 9 18C9 14.5774 9 9 9 9C9 9 3.13042 9 0 9Z" fill="#0052B4"/>
<path d="M9 0C13.9705 0 18 4.02947 18 9C14.5774 9 9 9 9 9C9 9 9 3.13042 9 0Z" fill="#D80027"/>
<path d="M5.35734 3.13043L5.94013 4.92403H7.82602L6.3003 6.03251L6.88305 7.82611L5.35734 6.7176L3.83163 7.82611L4.41438 6.03251L2.88867 4.92403H4.77456L5.35734 3.13043Z" fill="#0052B4"/>
<path d="M12.6425 10.1739L13.2253 11.9675H15.1112L13.5854 13.076L14.1682 14.8696L12.6425 13.7611L11.1168 14.8696L11.6995 13.076L10.1738 11.9675H12.0597L12.6425 10.1739Z" fill="#D80027"/>
</g>
<defs>
<clipPath id="clip0_4115_4169">
<rect width="18" height="18" fill="white"/>
</clipPath>
</defs>
</svg>
