<svg width="56" height="56" viewBox="0 0 56 56" fill="none" xmlns="http://www.w3.org/2000/svg">
<rect width="56" height="56" rx="4" fill="#F7C033"/>
<path d="M27.7073 39.4146C21.2415 39.4146 16 34.1731 16 27.7073C16 21.2415 21.2415 16 27.7073 16C32.6206 16 36.8269 19.0266 38.5636 23.3171M17.4634 32.0976H20.8781C22.2251 32.0976 23.3171 31.0056 23.3171 29.6585V26.4878C23.3171 25.1408 24.4091 24.0488 25.7561 24.0488H28.1951C29.5422 24.0488 30.6341 22.9568 30.6341 21.6098V17.4634M35.3171 32.3902V32.3022M40 32.2884C40 35.3425 35.3171 39.4146 35.3171 39.4146C35.3171 39.4146 30.6341 35.3425 30.6341 32.2884C30.6341 29.7584 32.7308 27.7073 35.3171 27.7073C37.9034 27.7073 40 29.7584 40 32.2884Z" stroke="white" stroke-linecap="round" stroke-linejoin="round"/>
</svg>
