<svg width="56" height="56" viewBox="0 0 56 56" fill="none" xmlns="http://www.w3.org/2000/svg">
<rect width="56" height="56" rx="4" fill="#F7C033"/>
<path d="M39.2536 22.3333H16.7471M31.3337 27.3333C28.5674 27.3333 24.667 27.3333 24.667 27.3333M39.3337 23.0022V36.5C39.3337 38.0648 38.0651 39.3333 36.5003 39.3333H19.5003C17.9355 39.3333 16.667 38.0648 16.667 36.5V23.0022C16.667 22.5623 16.7694 22.1285 16.9661 21.735L18.913 17.8413C19.2729 17.1214 20.0088 16.6666 20.8136 16.6666H35.187C35.9919 16.6666 36.7277 17.1214 37.0877 17.8413L39.0345 21.735C39.2312 22.1285 39.3337 22.5623 39.3337 23.0022Z" stroke="white" stroke-linecap="round" stroke-linejoin="round"/>
</svg>
