<svg width="56" height="56" viewBox="0 0 56 56" fill="none" xmlns="http://www.w3.org/2000/svg">
<rect width="56" height="56" rx="4" fill="#F7C033"/>
<path d="M35.9126 27.4735L36.0469 26.9919L35.9126 27.4735ZM36.4716 28.0365L36.9587 27.9238L36.4716 28.0365ZM29.0689 19.5812L29.2422 19.1122L29.0689 19.5812ZM29.5531 20.2115L29.0586 20.2852L29.5531 20.2115ZM38.9211 14.6666C38.9211 14.3905 38.6973 14.1666 38.4211 14.1666C38.145 14.1666 37.9211 14.3905 37.9211 14.6666H38.9211ZM37.9211 23.4674C37.9211 23.7436 38.145 23.9674 38.4211 23.9674C38.6973 23.9674 38.9211 23.7436 38.9211 23.4674H37.9211ZM34.1012 18.5865C33.825 18.5865 33.6012 18.8104 33.6012 19.0865C33.6012 19.3627 33.825 19.5865 34.1012 19.5865V18.5865ZM42.6663 19.5865C42.9425 19.5865 43.1663 19.3627 43.1663 19.0865C43.1663 18.8104 42.9425 18.5865 42.6663 18.5865V19.5865ZM21.5526 32.8715C21.4091 32.6357 21.1014 32.5608 20.8656 32.7044C20.6297 32.848 20.5549 33.1556 20.6984 33.3915L21.5526 32.8715ZM29.9864 33.3915C30.13 33.1556 30.0552 32.848 29.8193 32.7044C29.5834 32.5608 29.2758 32.6357 29.1322 32.8715L29.9864 33.3915ZM21.6387 26.59V26.09C21.3625 26.09 21.1387 26.3138 21.1387 26.59H21.6387ZM21.7598 26.59H22.2598C22.2598 26.3138 22.036 26.09 21.7598 26.09V26.59ZM28.937 26.59V26.09C28.6609 26.09 28.437 26.3138 28.437 26.59H28.937ZM29.0448 26.59H29.5448C29.5448 26.3138 29.3209 26.09 29.0448 26.09V26.59ZM21.7598 26.689V27.189C22.036 27.189 22.2598 26.9652 22.2598 26.689H21.7598ZM21.6387 26.689H21.1387C21.1387 26.9652 21.3625 27.189 21.6387 27.189V26.689ZM29.0448 26.689V27.189C29.3209 27.189 29.5448 26.9652 29.5448 26.689H29.0448ZM28.937 26.689H28.437C28.437 26.9652 28.6609 27.189 28.937 27.189V26.689ZM29.2422 19.1122C27.9361 18.6295 26.5265 18.3664 25.0573 18.3664V19.3664C26.4062 19.3664 27.6986 19.6078 28.8955 20.0502L29.2422 19.1122ZM36.0469 26.9919C32.9292 26.1227 30.5406 23.4477 30.0477 20.1379L29.0586 20.2852C29.6093 23.9829 32.2781 26.9793 35.7783 27.9551L36.0469 26.9919ZM37.2816 30.7665C37.2816 29.7889 37.17 28.8372 36.9587 27.9238L35.9844 28.1491C36.1787 28.9891 36.2816 29.8653 36.2816 30.7665H37.2816ZM25.0573 43.1666C31.8156 43.1666 37.2816 37.6078 37.2816 30.7665H36.2816C36.2816 37.0697 31.2493 42.1666 25.0573 42.1666V43.1666ZM12.833 30.7665C12.833 37.6078 18.299 43.1666 25.0573 43.1666V42.1666C18.8653 42.1666 13.833 37.0697 13.833 30.7665H12.833ZM25.0573 18.3664C18.299 18.3664 12.833 23.9251 12.833 30.7665H13.833C13.833 24.4633 18.8653 19.3664 25.0573 19.3664V18.3664ZM35.7783 27.9551C35.8962 27.988 35.9661 28.0697 35.9844 28.1491L36.9587 27.9238C36.848 27.445 36.4729 27.1106 36.0469 26.9919L35.7783 27.9551ZM28.8955 20.0502C28.9629 20.0751 29.0388 20.1527 29.0586 20.2852L30.0477 20.1379C29.983 19.7036 29.7047 19.2831 29.2422 19.1122L28.8955 20.0502ZM37.9211 14.6666V23.4674H38.9211V14.6666H37.9211ZM34.1012 19.5865H42.6663V18.5865H34.1012V19.5865ZM25.3424 35.055C23.7583 35.055 22.3564 34.192 21.5526 32.8715L20.6984 33.3915C21.6684 34.985 23.3809 36.055 25.3424 36.055V35.055ZM29.1322 32.8715C28.3284 34.192 26.9266 35.055 25.3424 35.055V36.055C27.3039 36.055 29.0164 34.985 29.9864 33.3915L29.1322 32.8715ZM21.6387 27.09H21.7598V26.09H21.6387V27.09ZM28.937 27.09H29.0448V26.09H28.937V27.09ZM21.2598 26.59V26.689H22.2598V26.59H21.2598ZM21.7598 26.189H21.6387V27.189H21.7598V26.189ZM22.1387 26.689V26.59H21.1387V26.689H22.1387ZM28.5448 26.59V26.689H29.5448V26.59H28.5448ZM29.0448 26.189H28.937V27.189H29.0448V26.189ZM29.437 26.689V26.59H28.437V26.689H29.437Z" fill="white"/>
</svg>
