<svg width="56" height="56" viewBox="0 0 56 56" fill="none" xmlns="http://www.w3.org/2000/svg">
<rect width="56" height="56" rx="4" fill="#F7C033"/>
<path d="M33.3674 39.4277L33.3678 35.1426C33.368 32.7757 31.4493 30.8568 29.0824 30.8568H19.4861C17.1195 30.8568 15.2009 32.7752 15.2007 35.1418L15.2002 39.4277M40.7998 39.4279L40.8002 35.1429C40.8004 32.7759 38.8817 30.8571 36.5148 30.8571M32.542 17.414C33.5944 18.1949 34.2764 19.4467 34.2764 20.8578C34.2764 22.2689 33.5944 23.5207 32.542 24.3015M28.6586 20.8576C28.6586 23.2243 26.74 25.143 24.3732 25.143C22.0064 25.143 20.0878 23.2243 20.0878 20.8576C20.0878 18.4908 22.0064 16.5721 24.3732 16.5721C26.74 16.5721 28.6586 18.4908 28.6586 20.8576Z" stroke="white" stroke-linecap="round" stroke-linejoin="round"/>
</svg>
