<svg width="36" height="36" viewBox="0 0 36 36" fill="none" xmlns="http://www.w3.org/2000/svg">
<rect x="0.5" y="0.5" width="35" height="35" rx="17.5" fill="#302470" stroke="white"/>
<path d="M15.0007 17.9507C15.0007 16.2939 16.3435 14.9504 18.0004 14.9504C19.6572 14.9504 21.0007 16.2939 21.0007 17.9507C21.0007 19.6075 19.6572 20.9509 18.0004 20.9509C16.3435 20.9509 15.0007 19.6075 15.0007 17.9507ZM13.3788 17.9507C13.3788 20.5031 15.4479 22.5721 18.0004 22.5721C20.5529 22.5721 22.6219 20.5031 22.6219 17.9507C22.6219 15.3983 20.5529 13.3293 18.0004 13.3293C15.4479 13.3293 13.3788 15.3983 13.3788 17.9507ZM21.7249 13.1461C21.7248 13.3597 21.788 13.5685 21.9066 13.7461C22.0252 13.9238 22.1939 14.0623 22.3912 14.1441C22.5885 14.2259 22.8057 14.2474 23.0152 14.2058C23.2247 14.1642 23.4172 14.0614 23.5683 13.9105C23.7194 13.7595 23.8223 13.5671 23.8641 13.3576C23.9059 13.1481 23.8846 12.931 23.8029 12.7336C23.7212 12.5362 23.5829 12.3675 23.4053 12.2487C23.2277 12.13 23.0189 12.0666 22.8053 12.0665H22.8049C22.5186 12.0666 22.244 12.1804 22.0415 12.3828C21.839 12.5852 21.7251 12.8597 21.7249 13.1461ZM14.3642 25.2765C13.4867 25.2365 13.0098 25.0903 12.6928 24.9669C12.2726 24.8033 11.9728 24.6085 11.6576 24.2937C11.3423 23.9789 11.1472 23.6794 10.9843 23.2592C10.8608 22.9424 10.7146 22.4653 10.6747 21.5878C10.6311 20.6392 10.6224 20.3542 10.6224 17.9508C10.6224 15.5473 10.6318 15.2631 10.6747 14.3137C10.7147 13.4362 10.8619 12.9601 10.9843 12.6423C11.1479 12.2221 11.3428 11.9223 11.6576 11.6071C11.9724 11.2919 12.2719 11.0968 12.6928 10.9339C13.0096 10.8104 13.4867 10.6642 14.3642 10.6243C15.3129 10.5807 15.5979 10.572 18.0004 10.572C20.4028 10.572 20.6881 10.5814 21.6376 10.6243C22.5151 10.6643 22.9912 10.8115 23.309 10.9339C23.7292 11.0968 24.029 11.2923 24.3442 11.6071C24.6595 11.9219 24.8539 12.2221 25.0175 12.6423C25.141 12.9591 25.2872 13.4362 25.3271 14.3137C25.3707 15.2631 25.3794 15.5473 25.3794 17.9508C25.3794 20.3542 25.3707 20.6384 25.3271 21.5878C25.2871 22.4653 25.1402 22.9422 25.0175 23.2592C24.8539 23.6794 24.659 23.9792 24.3442 24.2937C24.0294 24.6082 23.7292 24.8033 23.309 24.9669C22.9922 25.0904 22.5151 25.2366 21.6376 25.2765C20.6889 25.3201 20.4039 25.3288 18.0004 25.3288C15.5968 25.3288 15.3126 25.3201 14.3642 25.2765ZM14.2897 9.00519C13.3315 9.04882 12.6768 9.20074 12.1051 9.42322C11.5129 9.65297 11.0116 9.9612 10.5107 10.4613C10.0098 10.9614 9.70232 11.4635 9.47255 12.0556C9.25007 12.6277 9.09814 13.2821 9.05451 14.2402C9.01015 15.1998 9 15.5066 9 17.9507C9 20.3948 9.01015 20.7016 9.05451 21.6612C9.09814 22.6194 9.25007 23.2736 9.47255 23.8458C9.70232 24.4375 10.0098 24.9402 10.5107 25.4401C11.0115 25.9399 11.5129 26.2477 12.1051 26.4781C12.6779 26.7006 13.3315 26.8525 14.2897 26.8962C15.2499 26.9398 15.5562 26.9507 18.0004 26.9507C20.4446 26.9507 20.7514 26.9405 21.711 26.8962C22.6692 26.8525 23.3235 26.7006 23.8957 26.4781C24.4875 26.2477 24.9891 25.9402 25.49 25.4401C25.991 24.9399 26.2978 24.4375 26.5282 23.8458C26.7507 23.2736 26.9033 22.6193 26.9462 21.6612C26.9898 20.7009 27 20.3948 27 17.9507C27 15.5066 26.9898 15.1998 26.9462 14.2402C26.9026 13.282 26.7507 12.6274 26.5282 12.0556C26.2978 11.4638 25.9902 10.9622 25.49 10.4613C24.9899 9.96041 24.4875 9.65297 23.8964 9.42322C23.3235 9.20074 22.6692 9.0481 21.7117 9.00519C20.7521 8.96156 20.4453 8.95068 18.0011 8.95068C15.5569 8.95068 15.2499 8.96084 14.2897 9.00519Z" fill="white"/>
</svg>
