<svg width="36" height="36" viewBox="0 0 36 36" fill="none" xmlns="http://www.w3.org/2000/svg">
<rect x="0.5" y="0.5" width="35" height="35" rx="17.5" fill="#302470" stroke="white"/>
<path d="M9.38429 17.3353C13.8135 15.3243 16.7669 13.9985 18.2447 13.358C22.4641 11.5291 23.3408 11.2114 23.9123 11.2008C24.038 11.1986 24.319 11.231 24.501 11.385C24.6547 11.515 24.697 11.6905 24.7173 11.8138C24.7375 11.937 24.7627 12.2177 24.7427 12.4371C24.514 14.9407 23.5247 21.0163 23.0213 23.8203C22.8083 25.0069 22.389 25.4047 21.983 25.4436C21.1007 25.5282 20.4307 24.836 19.5762 24.2522C18.2389 23.3387 17.4835 22.7701 16.1855 21.8787C14.6854 20.8486 15.6579 20.2824 16.5127 19.3571C16.7365 19.1149 20.6239 15.43 20.6992 15.0958C20.7086 15.054 20.7173 14.8981 20.6285 14.8158C20.5396 14.7336 20.4085 14.7617 20.3139 14.7841C20.1798 14.8158 18.0436 16.2872 13.9053 19.1983C13.2989 19.6322 12.7497 19.8437 12.2576 19.8326C11.7151 19.8204 10.6716 19.5129 9.89586 19.2502C8.94437 18.9278 8.18815 18.7574 8.254 18.21C8.2883 17.9249 8.66506 17.6333 9.38429 17.3353Z" fill="white"/>
</svg>
